<svg xmlns="http://www.w3.org/2000/svg" viewBox="0 0 402.64 500"><defs><style>.cls-1{fill:#bf1522;}.cls-2{fill:#077f37;}</style></defs><g id="Layer_2" data-name="Layer 2"><g id="Layer_1-2" data-name="Layer 1"><path class="cls-1" d="M157,89.77c.87-1.49,1.51-3.21,2.66-4.44a419.17,419.17,0,0,1,40.25-38.25A17.15,17.15,0,0,1,201.76,46,7.79,7.79,0,0,1,204,47Q223.85,66,243.62,85a34.68,34.68,0,0,1,2.88,3.58C245.52,89,164.15,90.3,157,89.77Z"/><path class="cls-1" d="M157,313.19a23.87,23.87,0,0,0,2.66,4.43,416.71,416.71,0,0,0,40.25,38.25,15.71,15.71,0,0,0,1.88,1.13,8,8,0,0,0,2.23-1.06q19.86-19,39.63-38a35.91,35.91,0,0,0,2.88-3.59C245.52,313.94,164.15,312.66,157,313.19Z"/><path class="cls-1" d="M359.12,201.64a4.73,4.73,0,0,1-.54.84Q343,218.05,327.38,233.6c-2.95,2.93-6,5.76-8.94,8.67-1.11,1.09-2.15,2.26-3.21,3.4a3.77,3.77,0,0,1-2.5,1.52,5.44,5.44,0,0,1-.3-1.26c0-8.31,0-80.09,0-89.28,0-.24.28-.49.56-.93a10.06,10.06,0,0,1,1.44,1c8.12,8.13,16.21,16.31,24.35,24.43,6.46,6.45,13,12.83,19.45,19.26A9.16,9.16,0,0,1,359.12,201.64Z"/><path class="cls-1" d="M89.63,247.35c-1-.81-1.75-1.28-2.37-1.88-2.81-2.74-5.58-5.51-8.36-8.28q-5.13-5.1-10.24-10.22-12.12-12.12-24.25-24.23c-.47-.48-1-.86-.85-1.87,15.18-15,30.48-30.11,45.5-45.31,1.31.56,1,1.39,1,2.09,0,3.56,0,86.6,0,88A8.83,8.83,0,0,1,89.63,247.35Z"/><path class="cls-2" d="M172.92,237.82c-.81-.64-1.39-1-1.88-1.49-2.22-2.17-4.42-4.36-6.63-6.55q-4-4-8.11-8.11l-19.21-19.2c-.37-.37-.83-.68-.68-1.48,12-11.88,24.16-23.86,36.05-35.9,1,.44.83,1.1.83,1.65,0,2.82,0,5.64,0,8.46,0,3.59,0,7.18,0,10.76a3.86,3.86,0,0,1-1.41,3.06c-2,1.93-4,3.94-6,5.9-1.09,1.07-2.21,2.1-3.29,3.18-.91.92-1.78,1.87-2.65,2.83a3.77,3.77,0,0,0-.4.85l2.28,2.2c3.43,3.39,6.83,6.8,10.29,10.16a3.45,3.45,0,0,1,1.12,3.16,21.86,21.86,0,0,0,0,2.8c0,4.35-.09,8.69-.12,13,0,1.11.09,2.22.09,3.34A7,7,0,0,1,172.92,237.82Z"/><path class="cls-2" d="M266.26,201.6a3.78,3.78,0,0,1-.43.66q-12.36,12.35-24.72,24.67c-2.34,2.32-4.74,4.57-7.09,6.87-.88.86-1.7,1.79-2.54,2.69a3,3,0,0,1-2,1.2,4.57,4.57,0,0,1-.24-1c0-6.59,0-13.17,0-19.76a3.69,3.69,0,0,1,1.3-2.76q5.61-5.51,11.17-11c.45-.44.86-.92,1.38-1.48-2.22-2.56-4.62-4.71-6.87-7s-4.55-4.57-6.94-6.95c0-7.19,0-14.48,0-21.76,0-.19.22-.38.44-.73a8.37,8.37,0,0,1,1.14.79c6.44,6.45,12.85,12.92,19.3,19.36,5.11,5.11,10.28,10.17,15.41,15.27A6.86,6.86,0,0,1,266.26,201.6Z"/><path class="cls-2" d="M179.16,247c10.36-30.52,20.66-60.83,31-91.21a12,12,0,0,1,3.33-.16c1.09,0,2.18,0,3.27,0s2.26,0,3.39,0a9,9,0,0,1,3.37.26Q208,201.48,192.55,247c-.91.3-9.72.48-12.45.25A4.93,4.93,0,0,1,179.16,247Z"/><path class="cls-2" d="M349,140.65a518,518,0,0,0-5.07-81.94,579.37,579.37,0,0,0-81.83-5.12A527.22,527.22,0,0,0,201.33,0c-22,16.81-43,34.12-61.35,53.25-14.21.48-27.52.6-40.78,1.46-13.46.87-26.88,2.45-40.49,3.74a575.52,575.52,0,0,0-5.32,81.47C34.86,159.76,16,179.12,0,201.62c16.5,21.48,33.44,42.43,53.42,60.64a594,594,0,0,0,5.16,81.85c27.12,3.66,81.38,5.55,108.81,5.06L147,331.36c-22.86,1.17-45.27-1.5-67.68-3.95a21.09,21.09,0,0,1-3.37-1.05,475,475,0,0,1-4.77-70.8c-17.44-16.2-32.32-34.63-47.55-53.62,14.89-18.85,29.89-37.38,47.65-53.89-.83-23.78,1.48-47.3,4.8-71.57,12.17-1.11,23.91-2.42,35.69-3.19,11.6-.76,23.23-1,35.68-1.44,15.83-17.12,34.41-32.15,53.45-47.28,19,14.58,37,29.87,52.4,46.45l72.42,4.86a465,465,0,0,1,4.83,72.46c17.58,16.27,32.87,34.28,47.62,53.5-14.74,19-29.84,37.18-47.53,53.38,1,23.89-1.75,47.44-4.51,71.51a481.58,481.58,0,0,1-71.63,4.78l-18.87,17.64c27.46.54,81.27-1.47,108.79-5.09,1.28-14.13,2.79-27.56,3.63-41s1-27,1.46-40c9.45-10.29,18.74-20.12,27.7-30.25s18-20.52,25.48-31.53C385.81,179.45,369.12,158.81,349,140.65Z"/><path class="cls-1" d="M34,460.42v12.75H30.84V465.6l-3.32,5.48H26.38L23,465.6v7.57H19.92V460.42h3.29l3.73,6.18,3.73-6.18Z"/><path class="cls-1" d="M44.53,468.57a5,5,0,1,1-5-4.85A4.77,4.77,0,0,1,44.53,468.57Zm-3,0a2,2,0,1,0-4,0,2,2,0,0,0,4,0Z"/><path class="cls-1" d="M51,463.72v3.17c-2.63-.4-2.92,1.09-2.92,2.64v3.64h-3v-9.23h3v1.4A3.53,3.53,0,0,1,51,463.72Z"/><path class="cls-1" d="M60.68,468.57a5,5,0,1,1-5-4.85A4.77,4.77,0,0,1,60.68,468.57Zm-3,0a2,2,0,1,0-4,0,2,2,0,0,0,4,0Z"/><path class="cls-1" d="M67.3,469.68l2.55,1.53a4.88,4.88,0,0,1-4.21,2.2,4.85,4.85,0,1,1,0-9.69,4.86,4.86,0,0,1,4.21,2.2l-2.55,1.53a2,2,0,0,0-1.66-.87,2,2,0,0,0,0,3.95A2,2,0,0,0,67.3,469.68Z"/><path class="cls-1" d="M76,469.68l2.55,1.53a4.85,4.85,0,0,1-4.2,2.2,4.85,4.85,0,1,1,0-9.69,4.83,4.83,0,0,1,4.2,2.2L76,467.45a2,2,0,0,0-3.62,1.12,1.91,1.91,0,0,0,2,2A2,2,0,0,0,76,469.68Z"/><path class="cls-1" d="M87.11,467.44v5.73h-3v-.85a3.2,3.2,0,0,1-2.53,1.09c-1.25,0-3.16-.47-3.16-2.71,0-3.06,4-3.06,4.6-3.06h1.09v0a1.35,1.35,0,0,0-1.51-1.49,2.89,2.89,0,0,0-1.75.58L79,465.38a5.47,5.47,0,0,1,4.15-1.66C86.07,463.72,87.11,465.23,87.11,467.44Zm-3,1.67h-.24c-1.48,0-2.46.28-2.46,1.2,0,.68.55.93,1.19.93a2,2,0,0,0,1.51-.65Z"/><path class="cls-1" d="M97.08,467.4v5.77h-3v-5a1.48,1.48,0,1,0-3,0v5h-3v-9.23h3v.86a3.19,3.19,0,0,1,2.53-1.08A3.38,3.38,0,0,1,97.08,467.4Z"/><path class="cls-1" d="M110,470.81h-4.83l-.74,2.36h-3.28l4.59-12.75h3.68l4.59,12.75h-3.26Zm-.75-2.37-1.67-5.3-1.68,5.3Z"/><path class="cls-1" d="M122,470.31c0,1.95-1.45,3.1-4.14,3.1-1.86,0-3.64-.6-4-2.22l2.68-.84c.11.36.47.75,1.31.75.62,0,1.11-.18,1.11-.66,0-.64-1-.6-2.06-.84-1.76-.4-2.73-1-2.73-2.84s1.66-3,4-3a3.45,3.45,0,0,1,3.56,2.35l-2.48.6a1,1,0,0,0-1.06-.67c-.58,0-1.12.16-1.12.67s1,.64,1.72.78C121,468,122,468.62,122,470.31Z"/><path class="cls-1" d="M129.84,470.31c0,1.95-1.44,3.1-4.14,3.1-1.86,0-3.64-.6-4-2.22l2.67-.84c.12.36.48.75,1.32.75.62,0,1.11-.18,1.11-.66,0-.64-1-.6-2.06-.84-1.77-.4-2.73-1-2.73-2.84s1.65-3,4-3a3.45,3.45,0,0,1,3.55,2.35l-2.48.6A1,1,0,0,0,126,466c-.58,0-1.12.16-1.12.67s1,.64,1.73.78C128.91,468,129.84,468.62,129.84,470.31Z"/><path class="cls-1" d="M139.66,468.57a5,5,0,1,1-4.95-4.85A4.77,4.77,0,0,1,139.66,468.57Zm-3,0a2,2,0,1,0-3.95,0,2,2,0,0,0,3.95,0Z"/><path class="cls-1" d="M146.28,469.68l2.55,1.53a4.87,4.87,0,0,1-4.21,2.2,4.85,4.85,0,1,1,0-9.69,4.85,4.85,0,0,1,4.21,2.2l-2.55,1.53a2,2,0,0,0-3.63,1.12,1.92,1.92,0,0,0,2,2A2,2,0,0,0,146.28,469.68Z"/><path class="cls-1" d="M149,461.35a1.55,1.55,0,1,1,3.1,0,1.55,1.55,0,1,1-3.1,0Zm.07,2.59h3v9.23h-3Z"/><path class="cls-1" d="M161.25,467.44v5.73h-3v-.85a3.19,3.19,0,0,1-2.53,1.09c-1.24,0-3.15-.47-3.15-2.71,0-3.06,4-3.06,4.59-3.06h1.09v0a1.34,1.34,0,0,0-1.51-1.49,2.91,2.91,0,0,0-1.75.58l-1.93-1.31a5.48,5.48,0,0,1,4.15-1.66C160.21,463.72,161.25,465.23,161.25,467.44Zm-3,1.67h-.23c-1.48,0-2.46.28-2.46,1.2,0,.68.54.93,1.18.93a2,2,0,0,0,1.51-.65Z"/><path class="cls-1" d="M165.71,466.38v2.91c0,1,.35,1.46,1.26,1.46.24,0,.42,0,.57-.05v2.47a3.79,3.79,0,0,1-1.28.17c-2.84,0-3.5-1.93-3.5-3.74v-3.22h-1.15v-2.44h1.15V462h3v1.93h1.83v2.44Z"/><path class="cls-1" d="M168.47,461.35a1.55,1.55,0,1,1,1.55,1.57A1.56,1.56,0,0,1,168.47,461.35Zm.07,2.59h3v9.23h-3Z"/><path class="cls-1" d="M182,468.57a5,5,0,1,1-4.95-4.85A4.76,4.76,0,0,1,182,468.57Zm-3,0a2,2,0,1,0-3.95,0,2,2,0,0,0,3.95,0Z"/><path class="cls-1" d="M191.38,467.4v5.77h-3v-5a1.47,1.47,0,1,0-2.94,0v5h-3v-9.23h3v.86a3.16,3.16,0,0,1,2.53-1.08A3.38,3.38,0,0,1,191.38,467.4Z"/><path class="cls-1" d="M200.13,463.94h1.8v2.44h-1.8v6.79h-3v-6.79H196v-2.44h1.13c0-1.71.58-4,3.5-4a7.59,7.59,0,0,1,1.27.12v2.39a3.63,3.63,0,0,0-.54,0C200.42,462.44,200.13,463,200.13,463.94Z"/><path class="cls-1" d="M211.75,468.57a5,5,0,1,1-4.95-4.85A4.76,4.76,0,0,1,211.75,468.57Zm-3,0a2,2,0,1,0-3.95,0,2,2,0,0,0,3.95,0Z"/><path class="cls-1" d="M218.17,463.72v3.17c-2.62-.4-2.91,1.09-2.91,2.64v3.64h-2.95v-9.23h2.95v1.4A3.5,3.5,0,0,1,218.17,463.72Z"/><path class="cls-1" d="M231.22,469.22l2.61,1.71a6.6,6.6,0,1,1,0-8.27l-2.61,1.71a3.12,3.12,0,0,0-2.55-1.16,3.61,3.61,0,0,0,0,7.2A3.09,3.09,0,0,0,231.22,469.22Z"/><path class="cls-1" d="M243.57,468.57a5,5,0,1,1-5-4.85A4.77,4.77,0,0,1,243.57,468.57Zm-3,0a2,2,0,1,0-4,0,2,2,0,0,0,4,0Z"/><path class="cls-1" d="M257.93,467.07v6.1h-3v-5.3a1.23,1.23,0,1,0-2.46,0v5.3h-3v-5.3a1.14,1.14,0,0,0-1.23-1.25,1.16,1.16,0,0,0-1.23,1.25v5.3h-3v-9.23h3v.71A3.31,3.31,0,0,1,252,465a3.3,3.3,0,0,1,2.66-1.24A3.07,3.07,0,0,1,257.93,467.07Z"/><path class="cls-1" d="M269,468.57c0,2.42-1.57,4.84-4.43,4.84a3.11,3.11,0,0,1-2.6-1.13v4.41h-3V463.94h3v.91a3.11,3.11,0,0,1,2.6-1.13C267.46,463.72,269,466.14,269,468.57Zm-3,0a2,2,0,1,0-2,2A1.87,1.87,0,0,0,266,468.57Z"/><path class="cls-1" d="M278.46,463.94v9.23h-3v-.83a3.14,3.14,0,0,1-2.51,1.07c-2.31,0-3.38-1.82-3.38-3.68v-5.79h2.94v5a1.44,1.44,0,0,0,1.48,1.59,1.42,1.42,0,0,0,1.47-1.59v-5Z"/><path class="cls-1" d="M283.11,466.38v2.91c0,1,.34,1.46,1.25,1.46.24,0,.42,0,.57-.05v2.47a3.75,3.75,0,0,1-1.28.17c-2.84,0-3.5-1.93-3.5-3.74v-3.22H279v-2.44h1.14V462h3v1.93h1.82v2.44Z"/><path class="cls-1" d="M285.86,461.35a1.55,1.55,0,1,1,1.55,1.57A1.57,1.57,0,0,1,285.86,461.35Zm.07,2.59h3v9.23h-3Z"/><path class="cls-1" d="M298.85,467.4v5.77h-3v-5a1.47,1.47,0,1,0-2.94,0v5h-3v-9.23h3v.86a3.15,3.15,0,0,1,2.52-1.08A3.38,3.38,0,0,1,298.85,467.4Z"/><path class="cls-1" d="M309.39,463.94v8.43c0,2.63-1.9,4.49-5.17,4.49-2,0-3.78-.79-4.49-1.94l2.21-1.31a2.62,2.62,0,0,0,2.14.86c1.81,0,2.35-1,2.35-2.42v-.42a3.07,3.07,0,0,1-2.58,1.13,4.52,4.52,0,0,1,0-9,3,3,0,0,1,2.58,1.22v-1Zm-3.06,4.3a2,2,0,1,0-2,2A1.88,1.88,0,0,0,306.33,468.24Z"/><path class="cls-1" d="M323.81,469.44c0,2.08-1.81,4-5,4-2.35,0-4.57-.91-5.13-3.28l2.88-.89a2.06,2.06,0,0,0,2.22,1.51c1.07,0,1.88-.42,1.88-1.25s-1.26-1.1-2.7-1.46c-2.55-.62-3.7-1.81-3.7-3.94,0-2.44,2-3.9,4.68-3.9a4.39,4.39,0,0,1,4.54,3.19l-2.88.71a1.69,1.69,0,0,0-1.81-1.24c-.9,0-1.5.49-1.5,1.22,0,1,1.5,1.24,2.49,1.52C322.9,466.47,323.81,467.45,323.81,469.44Z"/><path class="cls-1" d="M330.52,469.68l2.55,1.53a4.88,4.88,0,0,1-4.21,2.2,4.85,4.85,0,1,1,0-9.69,4.86,4.86,0,0,1,4.21,2.2l-2.55,1.53a2,2,0,0,0-1.66-.87,2,2,0,0,0,0,3.95A2,2,0,0,0,330.52,469.68Z"/><path class="cls-1" d="M333.27,461.35a1.55,1.55,0,1,1,1.55,1.57A1.57,1.57,0,0,1,333.27,461.35Zm.07,2.59h3v9.23h-3Z"/><path class="cls-1" d="M346.39,469.46h-6.67A2.2,2.2,0,0,0,342,471a2.47,2.47,0,0,0,1.89-.81l2.08,1.24a4.62,4.62,0,0,1-4,2c-3.12,0-5.19-2-5.19-4.84a4.77,4.77,0,0,1,4.77-4.85C344.35,463.72,346.76,465.58,346.39,469.46Zm-2.67-1.79a1.87,1.87,0,0,0-2-1.56,2,2,0,0,0-2,1.56Z"/><path class="cls-1" d="M355.87,467.4v5.77h-3v-5a1.48,1.48,0,1,0-2.95,0v5H347v-9.23H350v.86a3.19,3.19,0,0,1,2.53-1.08A3.38,3.38,0,0,1,355.87,467.4Z"/><path class="cls-1" d="M363,469.68l2.54,1.53a4.85,4.85,0,0,1-4.2,2.2,4.85,4.85,0,1,1,0-9.69,4.83,4.83,0,0,1,4.2,2.2L363,467.45a2,2,0,0,0-1.66-.87,2,2,0,0,0,0,3.95A2,2,0,0,0,363,469.68Z"/><path class="cls-1" d="M374.68,469.46H368a2.18,2.18,0,0,0,2.31,1.57,2.49,2.49,0,0,0,1.89-.81l2.08,1.24a4.62,4.62,0,0,1-4,2c-3.12,0-5.19-2-5.19-4.84a4.77,4.77,0,0,1,4.77-4.85C372.64,463.72,375.05,465.58,374.68,469.46ZM372,467.67a1.86,1.86,0,0,0-2-1.56,2,2,0,0,0-2,1.56Z"/><path class="cls-1" d="M382.72,470.31c0,1.95-1.44,3.1-4.14,3.1-1.85,0-3.64-.6-4-2.22l2.68-.84c.11.36.47.75,1.31.75.62,0,1.11-.18,1.11-.66,0-.64-1-.6-2.05-.84-1.77-.4-2.74-1-2.74-2.84s1.66-3,4-3a3.45,3.45,0,0,1,3.55,2.35l-2.48.6a1,1,0,0,0-1.05-.67c-.58,0-1.13.16-1.13.67s1,.64,1.73.78C381.79,468,382.72,468.62,382.72,470.31Z"/><path class="cls-1" d="M30.63,487.67v3a.88.88,0,0,1-.27.65.89.89,0,0,1-.65.27H23.33a.92.92,0,0,1-.92-.92v-1.7a2.18,2.18,0,0,0-.65-1.59,2.53,2.53,0,0,0-1.84-.65v3.94a3.4,3.4,0,0,0,3.41,3.4h6.38a3.38,3.38,0,0,0,3.4-3.4v-5.2a2.42,2.42,0,0,0-1.83.66A2.13,2.13,0,0,0,30.63,487.67Z"/><path class="cls-1" d="M26.54,495a1.34,1.34,0,0,0-1,.41,1.39,1.39,0,0,0-.41,1,1.41,1.41,0,0,0,.41,1,1.38,1.38,0,0,0,1,.4,1.4,1.4,0,0,0,1-2.4A1.33,1.33,0,0,0,26.54,495Z"/><path class="cls-1" d="M80,487.68v3.13a.76.76,0,0,1-1.29.53.77.77,0,0,1-.22-.53v-4.74a2.43,2.43,0,0,0-1.83.66,2.17,2.17,0,0,0-.65,1.58v2.5a.76.76,0,0,1-1.51,0v-4.12a2.49,2.49,0,0,0-1.83.66,2.14,2.14,0,0,0-.65,1.59v1.7a.88.88,0,0,1-.27.65.89.89,0,0,1-.65.27H42.22a.94.94,0,0,1-.93-.92v-5.19a8.69,8.69,0,0,0-3.83.72,5.17,5.17,0,0,0-2.19,1.92,4.72,4.72,0,0,0-.75,2.57A3.38,3.38,0,0,0,37.91,494l0,0a2.7,2.7,0,0,1-1,.58,2.61,2.61,0,0,0-1.66,2.44v.26a5.87,5.87,0,0,0,3.68-1,5.21,5.21,0,0,0,2-2.55,3,3,0,0,0,1.29.23H71.1a3,3,0,0,0,2-.64,2.5,2.5,0,0,0,1.82.64h.67a2.63,2.63,0,0,0,1.66-.5,2.59,2.59,0,0,0,1.66.5h.67a2.89,2.89,0,0,0,2.9-2.9v-5.7a2.43,2.43,0,0,0-1.83.66A2.17,2.17,0,0,0,80,487.68Zm-42.12,3.87a.89.89,0,0,1-.65-.27.83.83,0,0,1-.27-.63,2.5,2.5,0,0,1,.55-1.49,2.34,2.34,0,0,1,1.27-.91v2.38a2.38,2.38,0,0,0,.11.92Z"/><path class="cls-1" d="M106.85,482.35v8.29a.92.92,0,0,1-.92.92h-1.14a8.52,8.52,0,0,0-.63-2.3,6.68,6.68,0,0,0-2.09-2.75,5.37,5.37,0,0,0-2.79-1.06h-.53a4.19,4.19,0,0,0-3,1.32,4.54,4.54,0,0,0-1.2,3.29h.93A1.88,1.88,0,0,0,97.23,489a1.79,1.79,0,0,1,.72-.79,2,2,0,0,1,1-.26,3.09,3.09,0,0,1,2,.85,4.8,4.8,0,0,1,1.37,2.78H88a.92.92,0,0,1-.92-.92V480.11a2.49,2.49,0,0,0-1.83.65,2.16,2.16,0,0,0-.65,1.59v8.29a3.24,3.24,0,0,0,1,2.4A3.2,3.2,0,0,0,88,494h18a3.38,3.38,0,0,0,3.4-3.4V480.11a2.48,2.48,0,0,0-1.82.65A2.13,2.13,0,0,0,106.85,482.35Z"/><path class="cls-1" d="M111.53,482.37V494a2.48,2.48,0,0,0,1.83-.65,2.21,2.21,0,0,0,.65-1.58V480.13a2.53,2.53,0,0,0-1.83.65A2.16,2.16,0,0,0,111.53,482.37Z"/><path class="cls-1" d="M127.39,486.25a6.36,6.36,0,0,0-3.31-.8,4.17,4.17,0,0,0-3.25,1.32,4.84,4.84,0,0,0-1.2,3.36V500a2.5,2.5,0,0,0,1.84-.66,2.17,2.17,0,0,0,.65-1.58v-7.48a2.9,2.9,0,0,1,.33-1.53,1.28,1.28,0,0,1,.79-.67v2.52a3.39,3.39,0,0,0,.83,2.26,3.48,3.48,0,0,0,2.15,1.17,3.37,3.37,0,0,0,2.69-.88,3.23,3.23,0,0,0,1.11-2.5,4.94,4.94,0,0,0-.66-2.4A5.39,5.39,0,0,0,127.39,486.25Zm-.27,5.14a.85.85,0,0,1-.92.06,1.08,1.08,0,0,1-.48-.88v-2.38a2.74,2.74,0,0,1,1.23.92,2.36,2.36,0,0,1,.59,1.54A.88.88,0,0,1,127.12,491.39Z"/><path class="cls-1" d="M195.6,482.35v8.29a.92.92,0,0,1-.92.92h-2.14a3.77,3.77,0,0,0,.62-1.77,3.62,3.62,0,0,0-.86-2.74,4.89,4.89,0,0,0-3-1.58,6.34,6.34,0,0,0-6.49,3.09c-.09.31.15.83.72,1.58a9.12,9.12,0,0,0,1.26,1.42H170a.88.88,0,0,1-.65-.27.86.86,0,0,1-.27-.65V480.11a2.53,2.53,0,0,0-1.83.65,2.16,2.16,0,0,0-.65,1.59v8.29a.94.94,0,0,1-.92.92H139.3a.91.91,0,0,1-.65-.27.86.86,0,0,1-.27-.65v-5.19a8.69,8.69,0,0,0-3.83.72,5.17,5.17,0,0,0-2.19,1.92,4.72,4.72,0,0,0-.75,2.57A3.38,3.38,0,0,0,135,494l0,0a2.7,2.7,0,0,1-1,.58,2.61,2.61,0,0,0-1.66,2.44v.26a5.87,5.87,0,0,0,3.68-1,5.21,5.21,0,0,0,2-2.55,3,3,0,0,0,1.28.23h26.33a3,3,0,0,0,2.15-.76,3,3,0,0,0,2.13.76h17.2a6.57,6.57,0,0,0,1.8-.23,8,8,0,0,0,1.8.23h4a3.38,3.38,0,0,0,3.4-3.4V480.11a2.5,2.5,0,0,0-1.82.65A2.17,2.17,0,0,0,195.6,482.35ZM135,491.55a.89.89,0,0,1-.64-.27.83.83,0,0,1-.27-.63,2.5,2.5,0,0,1,.55-1.49,2.34,2.34,0,0,1,1.27-.91v2.38a2.38,2.38,0,0,0,.11.92Zm54.74-.83a2.84,2.84,0,0,1-1.47.27,2.18,2.18,0,0,1-.52-.25,7.79,7.79,0,0,1-1.17-.92,9.52,9.52,0,0,1-.9-.95,3.81,3.81,0,0,1,3.16-.95h.1a2.44,2.44,0,0,1,1.41.63,1.11,1.11,0,0,1,.39.92A1.61,1.61,0,0,1,189.7,490.72Z"/><path class="cls-1" d="M206.14,483.94a1.35,1.35,0,0,0,1-.42,1.4,1.4,0,0,0,0-2,1.39,1.39,0,0,0-2,0,1.4,1.4,0,0,0,0,2A1.36,1.36,0,0,0,206.14,483.94Z"/><path class="cls-1" d="M209.1,483.94a1.41,1.41,0,1,0-1-2.4,1.4,1.4,0,0,0,0,2A1.35,1.35,0,0,0,209.1,483.94Z"/><path class="cls-1" d="M229.25,495a1.33,1.33,0,0,0-1,.41,1.39,1.39,0,0,0,0,2,1.41,1.41,0,0,0,2,0,1.41,1.41,0,0,0,0-2A1.34,1.34,0,0,0,229.25,495Z"/><path class="cls-1" d="M226.28,495a1.33,1.33,0,0,0-1,.41,1.39,1.39,0,0,0,0,2,1.4,1.4,0,0,0,2,0,1.39,1.39,0,0,0,0-2A1.33,1.33,0,0,0,226.28,495Z"/><path class="cls-1" d="M234.12,495a1.4,1.4,0,1,0,1,.41A1.34,1.34,0,0,0,234.12,495Z"/><path class="cls-1" d="M237.31,485.44a2.42,2.42,0,0,0-1.83.66,2.14,2.14,0,0,0-.65,1.58v3a.88.88,0,0,1-.27.65.89.89,0,0,1-.65.27h-1.53a.89.89,0,0,1-.65-.27.88.88,0,0,1-.27-.65v-5.2a2.43,2.43,0,0,0-1.83.66,2.17,2.17,0,0,0-.65,1.58v3a.88.88,0,0,1-.27.65.89.89,0,0,1-.65.27H212a.92.92,0,0,1-.92-.92V484.7a9.5,9.5,0,0,0-4.16.78,5.72,5.72,0,0,0-2.39,2.09,5.17,5.17,0,0,0-.81,2.79,3.58,3.58,0,0,0,1.07,2.6,3.27,3.27,0,0,0,2.34,1.08h2.24a2.47,2.47,0,0,0-.66-1.83,2,2,0,0,0-1.3-.65h-.28a1,1,0,0,1-.58-.35,1.15,1.15,0,0,1-.35-.85,2.85,2.85,0,0,1,2.39-2.87v3.15A3.4,3.4,0,0,0,212,494h16.07a3,3,0,0,0,2.16-.76,3,3,0,0,0,2,.76h1.65a3.31,3.31,0,0,0,2.41-1,3.35,3.35,0,0,0,1-2.41Z"/><path class="cls-1" d="M266.71,484.84a1.42,1.42,0,0,0,1.41-1.41,1.35,1.35,0,0,0-.42-1,1.41,1.41,0,0,0-2,0,1.41,1.41,0,0,0,0,2A1.35,1.35,0,0,0,266.71,484.84Z"/><path class="cls-1" d="M284.2,482.35v8.29a.86.86,0,0,1-.27.65.85.85,0,0,1-.65.27h-1.16a.88.88,0,0,1-.64-.26.94.94,0,0,1-.28-.65,4.71,4.71,0,0,0-.74-2.57,5.31,5.31,0,0,0-2.2-1.91,8.59,8.59,0,0,0-3.84-.73v5.2a.88.88,0,0,1-.27.65.86.86,0,0,1-.65.27h-2.11a3.77,3.77,0,0,0,.62-1.77,3.58,3.58,0,0,0-.86-2.74,4.89,4.89,0,0,0-3-1.58,6.34,6.34,0,0,0-6.49,3.09c-.09.31.15.83.72,1.58a9.1,9.1,0,0,0,1.27,1.42H243.42a.89.89,0,0,1-.65-.27.86.86,0,0,1-.27-.65v-5.19a2.42,2.42,0,0,0-1.83.66,2.13,2.13,0,0,0-.65,1.57v4.13a3,3,0,0,1-1.91,2.86,2.62,2.62,0,0,0-1.65,2.44v.27a5.92,5.92,0,0,0,4.37-1.59,4.79,4.79,0,0,0,1.32-2,2.7,2.7,0,0,0,1.2.22H266a6.57,6.57,0,0,0,1.8-.23,8.07,8.07,0,0,0,1.8.23h3.94a3,3,0,0,0,2.16-.75,3,3,0,0,0,2.16.75,3,3,0,0,0,2.14-.76,3,3,0,0,0,1.92.75h1.4a3.4,3.4,0,0,0,3.41-3.4V480.11a2.53,2.53,0,0,0-1.83.65A2.17,2.17,0,0,0,284.2,482.35Zm-15.65,8.37a2.84,2.84,0,0,1-1.47.27,2.18,2.18,0,0,1-.52-.25,7.79,7.79,0,0,1-1.17-.92,9.52,9.52,0,0,1-.9-.95,3.81,3.81,0,0,1,3.16-.95h.1a2.44,2.44,0,0,1,1.41.63,1.11,1.11,0,0,1,.39.92A1.61,1.61,0,0,1,268.55,490.72Zm9.9.57a.85.85,0,0,1-.63.27.84.84,0,0,1-.64-.27.85.85,0,0,1-.27-.64v-2.39a2.3,2.3,0,0,1,1.26.91,2.47,2.47,0,0,1,.55,1.48A.87.87,0,0,1,278.45,491.29Z"/><path class="cls-1" d="M288.88,482.37V494a2.45,2.45,0,0,0,1.83-.65,2.17,2.17,0,0,0,.65-1.58V480.13a2.5,2.5,0,0,0-1.82.65A2.17,2.17,0,0,0,288.88,482.37Z"/><path class="cls-1" d="M302.39,483.94a1.41,1.41,0,1,0-1-2.4,1.4,1.4,0,0,0,0,2A1.36,1.36,0,0,0,302.39,483.94Z"/><path class="cls-1" d="M299.42,483.94a1.43,1.43,0,1,0-1-.42A1.34,1.34,0,0,0,299.42,483.94Z"/><path class="cls-1" d="M331,495a1.33,1.33,0,0,0-1,.41,1.39,1.39,0,0,0,0,2,1.4,1.4,0,0,0,2,0,1.39,1.39,0,0,0,0-2A1.33,1.33,0,0,0,331,495Z"/><path class="cls-1" d="M334,495a1.33,1.33,0,0,0-1,.41,1.39,1.39,0,0,0,0,2,1.41,1.41,0,0,0,2,0,1.41,1.41,0,0,0,0-2A1.34,1.34,0,0,0,334,495Z"/><path class="cls-1" d="M368.24,495a1.4,1.4,0,1,0,1,.41A1.34,1.34,0,0,0,368.24,495Z"/><path class="cls-1" d="M375.56,482.35v8.29a.92.92,0,0,1-.92.92H373.5a8.17,8.17,0,0,0-.63-2.3,6.59,6.59,0,0,0-2.09-2.75,5.37,5.37,0,0,0-2.79-1.06h-.52a4.23,4.23,0,0,0-3,1.32,4.58,4.58,0,0,0-1.2,3.29h.93a1.87,1.87,0,0,0,1.71-1.08,1.85,1.85,0,0,1,.72-.79,2,2,0,0,1,.95-.26,3.13,3.13,0,0,1,2,.85,4.74,4.74,0,0,1,1.36,2.78H358.72a.9.9,0,0,1-.64-.26.94.94,0,0,1-.28-.65,4.71,4.71,0,0,0-.74-2.57,5.19,5.19,0,0,0-2.2-1.91,8.51,8.51,0,0,0-3.83-.73v5.2a.92.92,0,0,1-.92.92H348a3.77,3.77,0,0,0,.62-1.77,3.59,3.59,0,0,0-.87-2.74,4.83,4.83,0,0,0-3-1.58,6.35,6.35,0,0,0-6.49,3.09c-.09.31.16.83.73,1.58a8.63,8.63,0,0,0,1.26,1.42h-3.07a.89.89,0,0,1-.65-.27.88.88,0,0,1-.27-.65v-5.2a2.43,2.43,0,0,0-1.83.66,2.17,2.17,0,0,0-.65,1.58v3a.88.88,0,0,1-.27.65.89.89,0,0,1-.65.27H305.27a.89.89,0,0,1-.65-.27.88.88,0,0,1-.27-.65V484.7a9.5,9.5,0,0,0-4.16.78,5.78,5.78,0,0,0-2.39,2.09,5.17,5.17,0,0,0-.81,2.79,3.58,3.58,0,0,0,1.07,2.6A3.28,3.28,0,0,0,300.4,494h2.24a2.47,2.47,0,0,0-.66-1.83,2,2,0,0,0-1.3-.65h-.28a1,1,0,0,1-.58-.35,1.15,1.15,0,0,1-.35-.85,2.86,2.86,0,0,1,2.39-2.87v3.15a3.4,3.4,0,0,0,3.41,3.4h27.55a3,3,0,0,0,2.16-.76,3,3,0,0,0,2,.76h5.55a6.52,6.52,0,0,0,1.8-.23,8.07,8.07,0,0,0,1.8.23h3.95a3,3,0,0,0,2.15-.75,3.07,3.07,0,0,0,2.16.75,3,3,0,0,0,2.15-.76,3,3,0,0,0,2.06.76h16a3.38,3.38,0,0,0,3.4-3.4V480.11a2.5,2.5,0,0,0-1.82.65A2.17,2.17,0,0,0,375.56,482.35Zm-30.41,8.37a2.82,2.82,0,0,1-1.47.27,2.43,2.43,0,0,1-.51-.25,6.89,6.89,0,0,1-1.17-.92,8.78,8.78,0,0,1-.91-.95,3.82,3.82,0,0,1,3.16-.95h.1a2.47,2.47,0,0,1,1.42.63,1.18,1.18,0,0,1,.39.92A1.63,1.63,0,0,1,345.15,490.72Zm9.9.57a.91.91,0,0,1-1.54-.64v-2.39a2.27,2.27,0,0,1,1.26.91,2.47,2.47,0,0,1,.55,1.48A.87.87,0,0,1,355.05,491.29Z"/><path class="cls-1" d="M380.9,480.78a2.17,2.17,0,0,0-.66,1.59V494a2.47,2.47,0,0,0,1.83-.65,2.21,2.21,0,0,0,.65-1.58V480.13A2.48,2.48,0,0,0,380.9,480.78Z"/><path class="cls-1" d="M45.9,421.8c0-9.15,6.87-11.27,11.12-11.27S68,412.49,68,421.8V450H94.61V421.8c0-9.15,6.7-11.27,11-11.27s11.11,2,11.11,11.27V450h26.48V414.61c0-16.67-9.31-30.07-29.58-30.07-11.44,0-19,5.06-23.86,11.11-4.42-6.7-11.93-11.11-23.38-11.11-9.64,0-16.18,3.6-20.43,8.34V386.5H19.26V450H45.9Z"/><path class="cls-1" d="M174.85,443.71c0-8.34,8.82-10.79,22.06-10.79H199v13.24a13.77,13.77,0,0,1-4.93,3.81h31.4V417.88c0-19.77-9.31-33.34-35.79-33.34-15.85,0-28.27,5.39-37.27,14.87l17.33,11.77A26,26,0,0,1,185.47,406c9.64,0,13.57,5.56,13.57,13.4v.33h-9.81c-5.56,0-41.19,0-41.19,27.46,0,1,.08,1.91.16,2.83h29.62A7.3,7.3,0,0,1,174.85,443.71Z"/><path class="cls-1" d="M289.74,438a17.62,17.62,0,0,1-14.88,7.68c-10.62,0-17.65-8-17.65-17.66s7-17.81,17.65-17.81a17.35,17.35,0,0,1,14.88,7.85l22.88-13.73c-7.52-12.1-21.25-19.78-37.76-19.78-25.82,0-44.45,18.8-44.45,43.47a44.05,44.05,0,0,0,5.71,22h73.59Z"/><path class="cls-1" d="M334.19,444l-19,5.94h25.36C336.8,448.78,334.89,446.38,334.19,444Z"/><path class="cls-1" d="M383.38,443.71c0-15.2-8.33-21.25-29.26-25.66-6.53-1.31-15.52-1.64-15.52-7,0-4.58,4.9-6,10.13-6,4.91,0,8.5,2.12,9.48,6l22.23-5.4c-3.6-14.05-17.65-21.08-31.87-21.08-20.76,0-35.63,10-35.63,27.3,0,16.17,8.66,21.9,24.51,25.49,9.81,2.13,18.47,1.8,18.47,7.52,0,2.63-1.7,4.26-4.31,5.12h31.16A31.43,31.43,0,0,0,383.38,443.71Z"/></g></g></svg>